<svg width="271" height="76" viewBox="0 0 271 76" fill="none" xmlns="http://www.w3.org/2000/svg">
<g clip-path="url(#clip0_100_11060)">
<path d="M67.7066 64.4062C67.9284 64.6193 68.1036 64.8761 68.221 65.1604C68.3383 65.4448 68.3954 65.7503 68.3885 66.0579C68.3911 66.5212 68.2559 66.9748 68.0001 67.361C67.7442 67.7472 67.3792 68.0486 66.9515 68.2268C66.5238 68.4049 66.0528 68.4519 65.5984 68.3615C65.144 68.2712 64.7267 68.0478 64.3997 67.7196C64.1809 67.5022 64.008 67.2431 63.8913 66.9577C63.7745 66.6722 63.7163 66.3662 63.72 66.0579C63.7194 65.4382 63.9643 64.8436 64.4011 64.4041C64.8379 63.9646 65.431 63.7161 66.0506 63.7128C66.3597 63.7069 66.6666 63.7655 66.9517 63.8849C67.2368 64.0043 67.494 64.1818 67.7066 64.4062ZM67.9809 64.1362C67.73 63.88 67.4295 63.6776 67.0977 63.5414C66.7659 63.4053 66.4099 63.3382 66.0513 63.3442C65.6046 63.3448 65.1649 63.4557 64.7712 63.667C64.3776 63.8782 64.0421 64.1833 63.7945 64.5552C63.547 64.9271 63.395 65.3544 63.3521 65.7991C63.3092 66.2438 63.3766 66.6922 63.5484 67.1046C63.7203 67.517 63.9912 67.8806 64.3372 68.1633C64.6832 68.4459 65.0935 68.6388 65.5319 68.7249C65.9703 68.811 66.4232 68.7877 66.8504 68.6569C67.2776 68.5261 67.6659 68.292 67.9809 67.9752C68.2334 67.7231 68.4337 67.4236 68.5703 67.094C68.7069 66.7644 68.7773 66.4111 68.7773 66.0543C68.7773 65.6974 68.7069 65.3441 68.5703 65.0145C68.4337 64.6849 68.2334 64.3855 67.9809 64.1333V64.1362ZM66.456 65.9268C66.2953 65.9799 66.126 66.0024 65.957 65.9931H65.4861V64.9131H65.9347C66.2227 64.9131 66.4387 64.9541 66.5661 65.0268C66.6936 65.0995 66.7649 65.2479 66.7649 65.4588C66.7723 65.56 66.746 65.6608 66.6901 65.7454C66.6342 65.8301 66.5519 65.8939 66.456 65.9268ZM64.962 67.5317H65.4861V66.3595H65.9016C66.1766 66.3595 66.3739 66.3883 66.4855 66.4575C66.6705 66.5683 66.7649 66.7973 66.7649 67.14V67.3798L66.7749 67.4698C66.7786 67.4815 66.7813 67.4936 66.7829 67.5058C66.7829 67.5202 66.7872 67.5252 66.7965 67.5317H67.2833L67.266 67.4971C67.2453 67.4493 67.2366 67.3972 67.2408 67.3452C67.2343 67.2631 67.2343 67.1904 67.2343 67.1242V66.9031C67.228 66.7359 67.1713 66.5746 67.0716 66.4402C66.9607 66.2811 66.7872 66.1875 66.5539 66.1464C66.7056 66.1259 66.8522 66.077 66.9859 66.0024C67.1853 65.8764 67.2782 65.6741 67.2782 65.412C67.2782 65.0391 67.1299 64.7835 66.8174 64.6567C66.6453 64.5847 66.3753 64.5495 66.0038 64.5495H64.962V67.5317Z" fill="black"/>
<path d="M65.7115 15.6737C65.2702 17.4974 65.039 19.3874 64.6128 21.3206C59.2128 20.6201 52.871 20.1067 45.7488 19.8562C45.1771 21.6641 44.6357 23.4338 44.0165 25.3656C55.9361 26.0986 61.7285 29.2399 65.1643 32.9414C68.5059 36.6854 69.215 40.8218 69.0221 44.6623C68.5922 50.904 65.8404 54.8489 62.064 57.7735C58.2422 60.6535 53.6191 62.082 49.9212 62.393C44.4643 62.8013 37.1678 61.5024 35.6155 60.552C34.6795 58.4251 33.7601 56.2824 32.7686 53.9453C32.5274 53.4478 32.3755 52.9373 33.0566 52.3447C34.1179 51.3274 35.1389 50.3431 36.2131 49.3006C36.6876 48.8369 37.2139 48.4049 37.6128 49.0694C39.0802 51.3324 40.4554 53.4089 41.8327 55.4774C43.3973 57.785 45.7805 59.8882 50.9868 59.5382C55.3637 59.1466 58.6908 55.836 59.0458 52.1942C59.4288 45.455 52.6104 40.6742 34.8797 39.1428C38.2824 28.872 41.598 18.931 44.2505 11.0304C48.4625 11.2248 52.3613 11.5682 56.0858 12.0492C58.8406 12.3998 61.4002 13.0414 63.967 13.338C57.3674 5.20272 47.2954 0 36 0C16.1186 0 4.52639e-06 16.1179 4.52639e-06 36C-0.010731 43.6782 2.44536 51.1568 7.00632 57.3336C8.53129 57.3451 9.58824 57.0046 9.70272 56.3472C9.8424 55.6596 9.72505 54.5954 9.6048 53.5219C8.8848 46.4573 8.63064 38.8296 8.90137 31.1861C7.07544 31.2653 5.43672 31.3474 3.86568 31.4395C3.92904 30.0262 4.00536 28.687 4.11912 27.293C5.67072 27.144 7.31449 27.0137 9.12024 26.861C9.19728 25.6435 9.28441 24.4649 9.38953 23.2747C10.2002 15.984 17.8769 11.5258 24.2712 9.80496C27.1087 9.11376 28.8439 8.8956 30.2062 8.82432C30.6986 8.80848 31.2293 8.78904 31.7578 8.78904C33.0833 8.78904 34.4282 8.91288 35.28 9.49176C36.6595 10.5257 38.0225 11.5546 39.4718 12.6986C39.6158 12.8945 39.7742 13.2026 39.4142 13.7318C38.749 14.5102 38.1067 15.2539 37.4306 16.0546C37.0411 16.5276 36.3946 16.403 35.8502 16.2554C34.7098 15.6715 33.6125 15.1351 32.4994 14.5958C30.4834 13.6987 28.3954 12.7757 26.0719 12.8678C24.6226 12.9838 23.2193 14.467 23.0738 16.4959C22.873 19.5833 22.7383 22.7484 22.6246 26.177C26.653 26.064 30.672 25.992 34.9092 25.9733C34.9092 26.9374 34.9027 27.8215 34.9027 28.8094C33.5203 29.4271 32.2171 30.0514 30.8318 30.6814C27.9734 30.7145 25.2533 30.7368 22.5137 30.7843C22.387 38.9412 22.5072 47.0678 22.8737 54.581C22.9457 55.715 23.0004 56.8634 23.3266 57.6324C23.7175 58.6001 25.9661 59.346 30.8578 59.6218C30.8772 60.4735 30.901 61.2778 30.9298 62.1029C22.9644 61.871 15.3158 61.1086 9.18577 60.0055C15.773 67.3654 25.344 72 36 72C55.8828 72 72 55.8814 72 36C72.0105 28.7441 69.8176 21.656 65.7115 15.6737Z" fill="black"/>
</g>
<g clip-path="url(#clip1_100_11060)">
<path d="M67.7066 64.4062C67.9284 64.6193 68.1036 64.8761 68.221 65.1604C68.3383 65.4448 68.3954 65.7503 68.3885 66.0579C68.3911 66.5212 68.2559 66.9748 68.0001 67.361C67.7442 67.7472 67.3792 68.0486 66.9515 68.2268C66.5238 68.4049 66.0528 68.4519 65.5984 68.3615C65.144 68.2712 64.7267 68.0478 64.3997 67.7196C64.1809 67.5022 64.008 67.2431 63.8913 66.9577C63.7745 66.6722 63.7163 66.3662 63.72 66.0579C63.7194 65.4382 63.9643 64.8436 64.4011 64.4041C64.8379 63.9646 65.431 63.7161 66.0506 63.7128C66.3597 63.7069 66.6666 63.7655 66.9517 63.8849C67.2368 64.0043 67.494 64.1818 67.7066 64.4062ZM67.9809 64.1362C67.73 63.88 67.4295 63.6776 67.0977 63.5414C66.7659 63.4053 66.4099 63.3382 66.0513 63.3442C65.6046 63.3448 65.1649 63.4557 64.7712 63.667C64.3776 63.8782 64.0421 64.1833 63.7945 64.5552C63.547 64.9271 63.395 65.3544 63.3521 65.7991C63.3092 66.2438 63.3766 66.6922 63.5484 67.1046C63.7203 67.517 63.9912 67.8806 64.3372 68.1633C64.6832 68.4459 65.0935 68.6388 65.5319 68.7249C65.9703 68.811 66.4232 68.7877 66.8504 68.6569C67.2776 68.5261 67.6659 68.292 67.9809 67.9752C68.2334 67.7231 68.4337 67.4236 68.5703 67.094C68.7069 66.7644 68.7773 66.4111 68.7773 66.0543C68.7773 65.6974 68.7069 65.3441 68.5703 65.0145C68.4337 64.6849 68.2334 64.3855 67.9809 64.1333V64.1362ZM66.456 65.9268C66.2953 65.9799 66.126 66.0024 65.957 65.9931H65.4861V64.9131H65.9347C66.2227 64.9131 66.4387 64.9541 66.5661 65.0268C66.6936 65.0995 66.7649 65.2479 66.7649 65.4588C66.7723 65.56 66.746 65.6608 66.6901 65.7454C66.6342 65.8301 66.5519 65.8939 66.456 65.9268ZM64.962 67.5317H65.4861V66.3595H65.9016C66.1766 66.3595 66.3739 66.3883 66.4855 66.4575C66.6705 66.5683 66.7649 66.7973 66.7649 67.14V67.3798L66.7749 67.4698C66.7786 67.4815 66.7813 67.4936 66.7829 67.5058C66.7829 67.5202 66.7872 67.5252 66.7965 67.5317H67.2833L67.266 67.4971C67.2453 67.4493 67.2366 67.3972 67.2408 67.3452C67.2343 67.2631 67.2343 67.1904 67.2343 67.1242V66.9031C67.228 66.7359 67.1713 66.5746 67.0716 66.4402C66.9607 66.2811 66.7872 66.1875 66.5539 66.1464C66.7056 66.1259 66.8522 66.077 66.9859 66.0024C67.1853 65.8764 67.2782 65.6741 67.2782 65.412C67.2782 65.0391 67.1299 64.7835 66.8174 64.6567C66.6453 64.5847 66.3753 64.5495 66.0038 64.5495H64.962V67.5317Z" fill="#E4002B"/>
<path d="M69.0185 44.6623C69.2115 40.8218 68.5023 36.6847 65.1608 32.9414C61.7264 29.2399 55.9325 26.1014 44.0129 25.3656C44.6321 23.4338 45.1735 21.6641 45.7452 19.8562C52.8732 20.1067 59.2135 20.6201 64.6092 21.3206C65.0355 19.3874 65.2666 17.4974 65.708 15.6737C65.1603 14.8726 64.58 14.094 63.967 13.338C61.4002 13.0414 58.8406 12.402 56.0859 12.0492C52.3613 11.5682 48.4625 11.2248 44.2505 11.0304C41.598 18.931 38.2824 28.872 34.8812 39.1464C52.6119 40.68 59.4303 45.4586 59.0472 52.2C58.6937 55.841 55.3652 59.1516 50.9883 59.544C45.782 59.8939 43.3988 57.7908 41.8342 55.4832C40.4561 53.411 39.0816 51.3346 37.6143 49.0752C37.2154 48.4106 36.6891 48.8426 36.2146 49.3063C35.1404 50.3489 34.1194 51.3331 33.0581 52.3505C32.3756 52.9438 32.5275 53.4535 32.7701 53.951C33.7616 56.2882 34.6846 58.4309 35.617 60.5578C37.1693 61.5089 44.4658 62.8078 49.9227 62.3995C53.6206 62.0885 58.2437 60.6586 62.0655 57.78C65.8404 54.8489 68.5923 50.904 69.0185 44.6623Z" fill="white"/>
<path d="M7.00632 57.3336C7.68888 58.2595 8.41368 59.1506 9.18072 60.007C15.3144 61.11 22.963 61.8725 30.9283 62.1043C30.9017 61.2778 30.8779 60.475 30.8563 59.6232C25.9646 59.3474 23.7161 58.6015 23.3251 57.6338C22.999 56.8649 22.9421 55.7165 22.8722 54.5825C22.505 47.0693 22.3848 38.9426 22.5122 30.7858C25.2482 30.7382 27.972 30.7138 30.8304 30.6828C32.2157 30.0514 33.5189 29.4271 34.9013 28.8108C34.9013 27.823 34.9078 26.9388 34.9078 25.9747C30.672 25.992 26.653 26.064 22.6246 26.1756C22.7383 22.747 22.873 19.5818 23.0738 16.4945C23.2178 14.4655 24.6226 12.9823 26.0719 12.8664C28.3946 12.7757 30.4805 13.6987 32.4994 14.5944C33.6125 15.1337 34.7098 15.6701 35.8502 16.254C36.3946 16.398 37.0411 16.5262 37.4306 16.0531C38.1067 15.2525 38.749 14.5087 39.4142 13.7304C39.7742 13.1983 39.6187 12.893 39.4711 12.6972C38.0225 11.5531 36.6595 10.5242 35.28 9.49032C34.4282 8.91432 33.0833 8.7876 31.7578 8.7876C31.2293 8.7876 30.6986 8.80704 30.2062 8.82288C28.8439 8.89488 27.1102 9.11088 24.2712 9.80352C17.8769 11.5258 10.2002 15.984 9.3888 23.2754C9.2844 24.4656 9.19728 25.6442 9.12024 26.8618C7.31448 27.0137 5.67072 27.144 4.11912 27.2938C4.00536 28.6877 3.92904 30.0298 3.86568 31.4402C5.43672 31.3481 7.07544 31.266 8.90136 31.1868C8.63064 38.8303 8.88696 46.458 9.6048 53.5226C9.72504 54.5962 9.8424 55.6603 9.70272 56.3479C9.58824 57.0046 8.53128 57.3451 7.00632 57.3336Z" fill="white"/>
<path d="M65.7115 15.6737C65.2702 17.4974 65.039 19.3874 64.6128 21.3206C59.2128 20.6201 52.871 20.1067 45.7488 19.8562C45.1771 21.6641 44.6357 23.4338 44.0165 25.3656C55.9361 26.0986 61.7285 29.2399 65.1643 32.9414C68.5059 36.6854 69.215 40.8218 69.0221 44.6623C68.5922 50.904 65.8404 54.8489 62.064 57.7735C58.2422 60.6535 53.6191 62.082 49.9212 62.393C44.4643 62.8013 37.1678 61.5024 35.6155 60.552C34.6795 58.4251 33.7601 56.2824 32.7686 53.9453C32.5274 53.4478 32.3755 52.9373 33.0566 52.3447C34.1179 51.3274 35.1389 50.3431 36.2131 49.3006C36.6876 48.8369 37.2139 48.4049 37.6128 49.0694C39.0802 51.3324 40.4554 53.4089 41.8327 55.4774C43.3973 57.785 45.7805 59.8882 50.9868 59.5382C55.3637 59.1466 58.6908 55.836 59.0458 52.1942C59.4288 45.455 52.6104 40.6742 34.8797 39.1428C38.2824 28.872 41.598 18.931 44.2505 11.0304C48.4625 11.2248 52.3613 11.5682 56.0858 12.0492C58.8406 12.3998 61.4002 13.0414 63.967 13.338C57.3674 5.20272 47.2954 0 36 0C16.1186 0 4.52639e-06 16.1179 4.52639e-06 36C-0.010731 43.6782 2.44536 51.1568 7.00632 57.3336C8.53129 57.3451 9.58824 57.0046 9.70272 56.3472C9.8424 55.6596 9.72505 54.5954 9.6048 53.5219C8.8848 46.4573 8.63064 38.8296 8.90137 31.1861C7.07544 31.2653 5.43672 31.3474 3.86568 31.4395C3.92904 30.0262 4.00536 28.687 4.11912 27.293C5.67072 27.144 7.31449 27.0137 9.12024 26.861C9.19728 25.6435 9.28441 24.4649 9.38953 23.2747C10.2002 15.984 17.8769 11.5258 24.2712 9.80496C27.1087 9.11376 28.8439 8.8956 30.2062 8.82432C30.6986 8.80848 31.2293 8.78904 31.7578 8.78904C33.0833 8.78904 34.4282 8.91288 35.28 9.49176C36.6595 10.5257 38.0225 11.5546 39.4718 12.6986C39.6158 12.8945 39.7742 13.2026 39.4142 13.7318C38.749 14.5102 38.1067 15.2539 37.4306 16.0546C37.0411 16.5276 36.3946 16.403 35.8502 16.2554C34.7098 15.6715 33.6125 15.1351 32.4994 14.5958C30.4834 13.6987 28.3954 12.7757 26.0719 12.8678C24.6226 12.9838 23.2193 14.467 23.0738 16.4959C22.873 19.5833 22.7383 22.7484 22.6246 26.177C26.653 26.064 30.672 25.992 34.9092 25.9733C34.9092 26.9374 34.9027 27.8215 34.9027 28.8094C33.5203 29.4271 32.2171 30.0514 30.8318 30.6814C27.9734 30.7145 25.2533 30.7368 22.5137 30.7843C22.387 38.9412 22.5072 47.0678 22.8737 54.581C22.9457 55.715 23.0004 56.8634 23.3266 57.6324C23.7175 58.6001 25.9661 59.346 30.8578 59.6218C30.8772 60.4735 30.901 61.2778 30.9298 62.1029C22.9644 61.871 15.3158 61.1086 9.18577 60.0055C15.773 67.3654 25.344 72 36 72C55.8828 72 72 55.8814 72 36C72.0105 28.7441 69.8176 21.656 65.7115 15.6737Z" fill="#E4002B"/>
</g>
<path d="M154.6 59.5H145.3V29.4L134.9 59.4H127.8L117.3 29.4V59.4H108V14H120.9L131.3 41.3L141.7 14H154.6V59.5Z" fill="white"/>
<path d="M192.3 26.8V61.9C192.3 68.8 187.7 75.1 176.4 75.1C165.1 75.1 160.8 68.8 160.8 62.6H170.4C170.4 65 173 66.4 176.2 66.4C179.6 66.4 182.7 64.9 182.7 61.3V58.2C180.4 59.7 177.6 60.4 174.6 60.4C166.5 60.4 160.9 56 160.9 44.3V26.8H170.5V44.4C170.5 49.3 172.9 51.7 176.6 51.7C179.6 51.7 182.7 49.3 182.7 44.8V26.8H192.3Z" fill="white"/>
<path d="M208.7 23V34.5H230.7V43.5H208.7V59.5H198.8V14H232.7V23H208.7Z" fill="white"/>
<path d="M270.7 43.8V46.5C270.7 55 264 60.4 253.5 60.4C242.9 60.4 236.2 55 236.2 46.5V43.8H246.1V47.2C246.1 50.1 248.7 51.7 253.5 51.7C258.2 51.7 260.8 50.1 260.8 47.2V43.1C260.8 40.6 258.9 39.3 256.7 39.3H237.4V14H268.9V23H247.3V30.6H257.3C265.5 30.6 270.7 35.7 270.7 43.8Z" fill="white"/>
<defs>
<clipPath id="clip0_100_11060">
<rect width="72" height="72" fill="white"/>
</clipPath>
<clipPath id="clip1_100_11060">
<rect width="72" height="72" fill="white"/>
</clipPath>
</defs>
</svg>
